<svg width="1024" height="1024" viewBox="0 0 1024 1024" fill="none" xmlns="http://www.w3.org/2000/svg">
<path d="M992 96C992 64 960 32 928 32H96C64 32 32 64 32 96V704H992V96Z" fill="#212528"/>
<path d="M32 704V768C32 800 64 832 96 832H928C960 832 992 800 992 768V704H32Z" fill="#DDDDDD"/>
<path d="M384 864C384 928 320 928 256 928H768C704 928 640 928 640 864V832H384V864Z" fill="#BFBEBE"/>
<path d="M96 96H928V640H96V96Z" fill="#3E4347"/>
<path d="M512 782.4C520.837 782.4 528 775.236 528 766.4C528 757.563 520.837 750.4 512 750.4C503.163 750.4 496 757.563 496 766.4C496 775.236 503.163 782.4 512 782.4Z" fill="#94989B"/>
<path d="M256 928H768V992H256V928Z" fill="#94989B"/>
<path d="M478.856 123.785C480.822 123.244 483.808 122.586 485.493 122.315C487.178 122.05 491.314 121.927 494.684 122.045C498.463 122.177 502.379 122.657 504.896 123.29C507.143 123.856 510.472 124.938 512.3 125.693C514.128 126.448 554.679 149.105 602.419 176.038C650.16 202.965 690.829 226.107 692.794 227.459C694.76 228.806 697.849 231.357 699.657 233.123C701.469 234.894 703.833 237.486 704.921 238.889C706.003 240.292 706.82 241.614 706.734 241.823C706.652 242.038 687.969 253.315 623.864 291.566L620.545 287.989C618.718 286.024 616.308 283.789 615.184 283.024C614.061 282.258 589.358 268.205 560.295 251.799C531.232 235.389 506.183 221.494 504.641 220.917C503.099 220.335 500.112 219.601 498.003 219.284C495.246 218.866 493.101 218.85 490.344 219.238C488.24 219.534 485.708 220.029 484.728 220.346C483.747 220.657 481.792 221.489 480.388 222.193C478.983 222.897 454.858 237.016 426.775 253.565C398.693 270.113 374.914 284.264 373.939 285.003C372.964 285.738 371.182 287.376 369.982 288.642C368.782 289.907 367.281 291.913 366.653 293.107C366.02 294.301 365.366 295.219 365.198 295.148C365.024 295.076 346.015 284.457 322.946 271.547C299.882 258.637 281.001 247.845 280.996 247.564C280.991 247.283 281.848 245.62 282.905 243.864C283.962 242.109 285.867 239.389 287.128 237.813C288.389 236.241 290.922 233.74 292.744 232.256C294.649 230.704 332.877 207.844 382.354 178.666C429.813 150.677 470.135 127.102 471.963 126.275C473.791 125.443 476.89 124.326 478.856 123.785Z" fill="#3DDC84"/>
<path d="M484.728 220.335C485.708 220.014 487.893 219.549 489.578 219.304C491.263 219.06 493.045 218.83 493.535 218.794C494.025 218.758 496.093 218.988 498.131 219.299C500.168 219.611 503.099 220.34 504.641 220.917C506.183 221.494 531.232 235.389 560.295 251.794C589.358 268.2 613.831 282.09 614.674 282.656C615.516 283.228 617.431 284.866 618.927 286.294C620.423 287.728 622.087 289.53 623.609 291.703L611.227 299.077C604.416 303.134 595.057 308.977 581.996 317.662L578.932 314.375C576.011 311.242 574.214 310.155 540.893 291.367C521.659 280.518 504.426 270.945 502.598 270.088C499.673 268.715 498.738 268.531 494.684 268.526C490.895 268.526 489.553 268.751 487.025 269.828C485.34 270.542 468.567 280.212 449.752 291.316C430.937 302.419 414.419 312.503 413.045 313.722C411.677 314.942 410.007 316.917 408.138 320.279L406.224 319.157C405.172 318.539 400.98 315.978 396.905 313.462C392.831 310.951 384.217 305.925 377.758 302.297C371.299 298.664 365.897 295.587 365.759 295.454C365.621 295.326 366.02 294.255 366.653 293.076C367.281 291.902 368.782 289.907 369.982 288.642C371.182 287.376 372.964 285.738 373.939 285.003C374.914 284.264 398.693 270.113 426.775 253.565C454.858 237.016 478.983 222.897 480.387 222.193C481.792 221.488 483.747 220.652 484.728 220.335Z" fill="#37BF6E"/>
<path d="M624.63 291.158C625.054 290.913 643.747 279.727 666.177 266.297L706.958 241.874L707.944 243.191C708.49 243.91 709.695 245.997 710.629 247.819C711.569 249.646 712.932 253.029 713.667 255.346C714.454 257.826 715.225 261.913 715.541 265.296C715.909 269.169 716.021 303.491 715.904 370.797C715.735 464.878 715.674 470.777 714.801 474.385C714.296 476.492 713.218 480.049 712.406 482.294C711.594 484.539 709.731 488.331 708.26 490.714C706.795 493.097 703.864 496.858 701.75 499.072C699.631 501.282 696.522 504.068 694.837 505.262C693.152 506.461 653.52 529.995 606.759 557.561C559.999 585.126 520.597 608.263 519.193 608.977C517.788 609.686 515.031 610.814 513.065 611.488C511.1 612.156 507.536 613.044 505.151 613.457C502.767 613.876 499.948 614.213 496.982 614.202L496.987 516.993L499.407 516.871C500.74 516.805 503.323 516.294 505.151 515.738C506.979 515.177 510.783 513.396 513.612 511.773C516.435 510.156 540.75 495.858 567.638 479.998C607.306 456.607 617.073 450.636 619.402 448.36C620.985 446.819 623.155 444.176 624.232 442.492C625.304 440.808 626.642 438.053 627.204 436.369C627.765 434.685 628.465 431.24 628.756 428.714C629.098 425.709 629.22 403.328 629.108 363.909C628.95 309.14 628.853 303.44 628.072 300.889C627.597 299.348 626.453 296.623 625.534 294.842C624.114 292.091 623.982 291.535 624.63 291.158Z" fill="#4285F4"/>
<path d="M277.253 258.025C277.855 255.922 278.846 252.876 279.449 251.263C280.056 249.651 280.766 248.329 281.031 248.329C281.297 248.329 300.066 258.698 322.742 271.369C345.417 284.039 364.263 294.658 364.616 294.969C365.126 295.418 365.065 296.097 364.299 298.337C363.768 299.878 363.079 302.807 362.762 304.843C362.359 307.441 362.185 327.393 362.18 371.69C362.175 412.288 362.359 435.838 362.691 437.644C362.977 439.185 363.875 441.829 364.687 443.513C365.57 445.344 367.179 447.498 368.69 448.871C370.293 450.33 379.086 455.611 392.867 463.388C404.779 470.114 429.915 484.299 448.731 494.913C467.546 505.527 484.207 514.687 485.749 515.258C487.291 515.835 490.456 516.575 496.992 517.504L496.982 614.202H494.812C493.617 614.202 490.804 613.85 488.557 613.421C486.31 612.988 483.441 612.329 482.175 611.952C480.908 611.569 478.498 610.702 476.813 610.013C475.128 609.324 432.734 585.621 382.609 557.341C332.479 529.056 290.202 504.951 288.66 503.772C287.113 502.593 284.748 500.266 283.401 498.598C282.053 496.929 280.194 494.071 279.27 492.245C278.341 490.418 277.197 487.208 276.727 485.101C275.931 481.564 275.874 472.869 276.15 261.852L277.253 258.025Z" fill="#083042"/>
<path d="M482.175 272.297C484.559 270.92 487.781 269.445 489.323 269.011C491.084 268.521 493.464 268.307 495.705 268.429C498.258 268.572 500.229 269.062 502.598 270.139C504.426 270.966 521.659 280.523 540.893 291.372C572.611 309.257 576.129 311.37 578.677 314.059C580.219 315.687 582.174 318.386 584.549 323.086V411.926L582.69 415.728C581.449 418.269 580.009 420.264 578.35 421.749C576.971 422.984 560.883 432.817 542.169 443.865C523.635 454.81 506.744 464.597 504.641 465.618C501.164 467.302 500.413 467.475 496.471 467.486C494.087 467.491 491.212 467.215 490.089 466.873C488.965 466.531 470.931 456.601 450.007 444.809C419.254 427.479 411.595 422.953 410.033 421.193C408.966 419.999 407.756 417.988 407.347 416.723C406.704 414.763 406.617 407.798 406.862 323.596L408.093 320.534C408.981 318.33 410.196 316.626 412.433 314.452C415.001 311.957 420.975 308.231 446.688 293.112C463.819 283.039 479.79 273.67 482.175 272.297Z" fill="#D6F0FF"/>
<path d="M591.059 311.61C596.185 308.247 605.544 302.404 611.865 298.628C618.181 294.847 623.471 291.739 623.609 291.714C623.747 291.688 624.615 293.112 625.534 294.877C626.453 296.638 627.597 299.342 628.072 300.888C628.853 303.44 628.95 309.14 629.108 363.908C629.22 403.328 629.098 425.709 628.756 428.714C628.465 431.24 627.765 434.685 627.204 436.369C626.642 438.053 625.304 440.808 624.232 442.492C623.155 444.176 620.985 446.814 619.402 448.36C617.073 450.636 607.306 456.606 567.638 479.998C540.75 495.852 516.435 510.156 513.612 511.778C510.783 513.401 506.979 515.172 505.151 515.712C503.323 516.253 500.801 516.764 497.237 516.993L496.921 507.298C496.747 501.965 496.573 490.887 496.471 467.751L498.897 467.481C500.229 467.333 502.93 466.434 504.896 465.485C506.862 464.531 523.635 454.805 542.169 443.865C560.893 432.812 576.971 422.984 578.35 421.749C580.009 420.264 581.449 418.269 584.549 411.926V323.086L581.74 317.728L591.059 311.61Z" fill="#3870B2"/>
<path d="M362.716 304.971C363.002 303.144 363.722 300.215 364.314 298.449L365.392 295.25L366.98 296.214C367.853 296.74 372.816 299.547 378.013 302.44C383.211 305.338 391.937 310.446 397.416 313.794C402.895 317.141 407.536 320.029 407.74 320.208C407.939 320.387 407.766 321.683 407.347 323.086C406.709 325.255 406.591 332.312 406.597 370.032C406.597 410.676 406.668 414.641 407.475 416.978C407.985 418.473 409.206 420.387 410.416 421.606C411.881 423.076 423.375 429.817 450.007 444.809C470.645 456.428 488.455 466.251 489.578 466.629C490.701 467.011 492.652 467.445 496.216 467.863L496.589 492.428C496.793 505.941 496.839 517.106 496.686 517.249C496.538 517.386 494.648 517.233 492.483 516.902C490.324 516.57 487.291 515.83 485.749 515.258C484.207 514.682 467.546 505.527 448.731 494.914C429.915 484.3 404.779 470.114 392.867 463.388C379.086 455.612 370.293 450.33 368.69 448.871C367.179 447.498 365.57 445.345 364.687 443.513C363.875 441.829 362.976 439.186 362.691 437.644C362.359 435.838 362.18 412.263 362.185 371.563C362.19 330.873 362.379 307.104 362.716 304.971Z" fill="#041619"/>
</svg>
